<?xml version="1.0" encoding="UTF-8" standalone="no"?>
<!DOCTYPE svg PUBLIC "-//W3C//DTD SVG 1.1//EN"
 "http://www.w3.org/Graphics/SVG/1.1/DTD/svg11.dtd">
<!-- Generated by graphviz version 2.47.0 (20210316.0004)
 -->
<!-- Title: dependencies Pages: 1 -->
<svg width="2594pt" height="284pt"
 viewBox="0.00 0.00 2594.00 284.00" xmlns="http://www.w3.org/2000/svg" xmlns:xlink="http://www.w3.org/1999/xlink">
<g id="graph0" class="graph" transform="scale(1 1) rotate(0) translate(4 280)">
<title>dependencies</title>
<polygon fill="white" stroke="transparent" points="-4,4 -4,-280 2590,-280 2590,4 -4,4"/>
<text text-anchor="start" x="1272.01" y="-42.4" font-family="sans-serif" font-weight="bold" font-size="14.00">Legend</text>
<polygon fill="#ffffb3" stroke="transparent" points="1059,-10 1059,-30 1079,-30 1079,-10 1059,-10"/>
<text text-anchor="start" x="1082.63" y="-15.4" font-family="sans-serif" font-size="14.00"> &#160;Declarations</text>
<polygon fill="#8dd3c7" stroke="transparent" points="1172,-10 1172,-30 1192,-30 1192,-10 1172,-10"/>
<text text-anchor="start" x="1195.73" y="-15.4" font-family="sans-serif" font-size="14.00"> &#160;Module</text>
<polygon fill="#80b1d3" stroke="transparent" points="1258,-10 1258,-30 1278,-30 1278,-10 1258,-10"/>
<text text-anchor="start" x="1281.78" y="-15.4" font-family="sans-serif" font-size="14.00"> &#160;Bootstrap</text>
<polygon fill="#fdb462" stroke="transparent" points="1355,-10 1355,-30 1375,-30 1375,-10 1355,-10"/>
<text text-anchor="start" x="1378.67" y="-15.4" font-family="sans-serif" font-size="14.00"> &#160;Providers</text>
<polygon fill="#fb8072" stroke="transparent" points="1451,-10 1451,-30 1471,-30 1471,-10 1451,-10"/>
<text text-anchor="start" x="1474.73" y="-15.4" font-family="sans-serif" font-size="14.00"> &#160;Exports</text>
<g id="clust1" class="cluster">
<title>cluster_AppModule</title>
<polygon fill="none" stroke="black" stroke-dasharray="1,5" points="8,-70 8,-268 2578,-268 2578,-70 8,-70"/>
</g>
<g id="clust2" class="cluster">
<title>cluster_AppModule_declarations</title>
<polygon fill="none" stroke="black" points="168,-78 168,-130 2570,-130 2570,-78 168,-78"/>
</g>
<g id="clust18" class="cluster">
<title>cluster_AppModule_imports</title>
<polygon fill="none" stroke="black" points="16,-78 16,-130 160,-130 160,-78 16,-78"/>
</g>
<g id="clust20" class="cluster">
<title>cluster_AppModule_bootstrap</title>
<polygon fill="none" stroke="black" points="1205,-208 1205,-260 1329,-260 1329,-208 1205,-208"/>
</g>
<!-- AddProductComponent -->
<g id="node1" class="node">
<title>AddProductComponent</title>
<polygon fill="#ffffb3" stroke="black" points="2562.49,-122 2413.51,-122 2413.51,-86 2562.49,-86 2562.49,-122"/>
<text text-anchor="middle" x="2488" y="-99.8" font-family="Times,serif" font-size="14.00">AddProductComponent</text>
</g>
<!-- AppModule -->
<g id="node16" class="node">
<title>AppModule</title>
<polygon fill="#8dd3c7" stroke="black" points="1308.66,-187 1305.66,-191 1284.66,-191 1281.66,-187 1225.34,-187 1225.34,-151 1308.66,-151 1308.66,-187"/>
<text text-anchor="middle" x="1267" y="-164.8" font-family="Times,serif" font-size="14.00">AppModule</text>
</g>
<!-- AddProductComponent&#45;&gt;AppModule -->
<g id="edge1" class="edge">
<title>AddProductComponent&#45;&gt;AppModule</title>
<path fill="none" stroke="black" d="M2488,-122.32C2488,-145.66 2488,-183 2488,-183 2488,-183 1318.68,-183 1318.68,-183"/>
<polygon fill="black" stroke="black" points="1318.68,-179.5 1308.68,-183 1318.68,-186.5 1318.68,-179.5"/>
</g>
<!-- AddProviderComponent -->
<g id="node2" class="node">
<title>AddProviderComponent</title>
<polygon fill="#ffffb3" stroke="black" points="2395.65,-122 2242.35,-122 2242.35,-86 2395.65,-86 2395.65,-122"/>
<text text-anchor="middle" x="2319" y="-99.8" font-family="Times,serif" font-size="14.00">AddProviderComponent</text>
</g>
<!-- AddProviderComponent&#45;&gt;AppModule -->
<g id="edge2" class="edge">
<title>AddProviderComponent&#45;&gt;AppModule</title>
<path fill="none" stroke="black" d="M2319,-122.29C2319,-144.21 2319,-178 2319,-178 2319,-178 1318.89,-178 1318.89,-178"/>
<polygon fill="black" stroke="black" points="1318.89,-174.5 1308.89,-178 1318.89,-181.5 1318.89,-174.5"/>
</g>
<!-- AddUserComponent -->
<g id="node3" class="node">
<title>AddUserComponent</title>
<polygon fill="#ffffb3" stroke="black" points="2223.87,-122 2092.13,-122 2092.13,-86 2223.87,-86 2223.87,-122"/>
<text text-anchor="middle" x="2158" y="-99.8" font-family="Times,serif" font-size="14.00">AddUserComponent</text>
</g>
<!-- AddUserComponent&#45;&gt;AppModule -->
<g id="edge3" class="edge">
<title>AddUserComponent&#45;&gt;AppModule</title>
<path fill="none" stroke="black" d="M2158,-122.03C2158,-142.77 2158,-174 2158,-174 2158,-174 1318.78,-174 1318.78,-174"/>
<polygon fill="black" stroke="black" points="1318.78,-170.5 1308.78,-174 1318.78,-177.5 1318.78,-170.5"/>
</g>
<!-- AppComponent -->
<g id="node4" class="node">
<title>AppComponent</title>
<polygon fill="#ffffb3" stroke="black" points="2073.94,-122 1968.06,-122 1968.06,-86 2073.94,-86 2073.94,-122"/>
<text text-anchor="middle" x="2021" y="-99.8" font-family="Times,serif" font-size="14.00">AppComponent</text>
</g>
<!-- AppComponent&#45;&gt;AppModule -->
<g id="edge4" class="edge">
<title>AppComponent&#45;&gt;AppModule</title>
<path fill="none" stroke="black" d="M2021,-122.11C2021,-141.34 2021,-169 2021,-169 2021,-169 1318.88,-169 1318.88,-169"/>
<polygon fill="black" stroke="black" points="1318.88,-165.5 1308.88,-169 1318.88,-172.5 1318.88,-165.5"/>
</g>
<!-- ChantierEnCoursComponent -->
<g id="node5" class="node">
<title>ChantierEnCoursComponent</title>
<polygon fill="#ffffb3" stroke="black" points="1950.04,-122 1771.96,-122 1771.96,-86 1950.04,-86 1950.04,-122"/>
<text text-anchor="middle" x="1861" y="-99.8" font-family="Times,serif" font-size="14.00">ChantierEnCoursComponent</text>
</g>
<!-- ChantierEnCoursComponent&#45;&gt;AppModule -->
<g id="edge5" class="edge">
<title>ChantierEnCoursComponent&#45;&gt;AppModule</title>
<path fill="none" stroke="black" d="M1861,-122.3C1861,-140.27 1861,-165 1861,-165 1861,-165 1318.77,-165 1318.77,-165"/>
<polygon fill="black" stroke="black" points="1318.77,-161.5 1308.77,-165 1318.77,-168.5 1318.77,-161.5"/>
</g>
<!-- ConstructionFilter -->
<g id="node6" class="node">
<title>ConstructionFilter</title>
<polygon fill="#ffffb3" stroke="black" points="1753.16,-122 1634.84,-122 1634.84,-86 1753.16,-86 1753.16,-122"/>
<text text-anchor="middle" x="1694" y="-99.8" font-family="Times,serif" font-size="14.00">ConstructionFilter</text>
</g>
<!-- ConstructionFilter&#45;&gt;AppModule -->
<g id="edge6" class="edge">
<title>ConstructionFilter&#45;&gt;AppModule</title>
<path fill="none" stroke="black" d="M1694,-122.03C1694,-138.4 1694,-160 1694,-160 1694,-160 1318.72,-160 1318.72,-160"/>
<polygon fill="black" stroke="black" points="1318.72,-156.5 1308.72,-160 1318.72,-163.5 1318.72,-156.5"/>
</g>
<!-- DeleteProductComponent -->
<g id="node7" class="node">
<title>DeleteProductComponent</title>
<polygon fill="#ffffb3" stroke="black" points="1616.91,-122 1455.09,-122 1455.09,-86 1616.91,-86 1616.91,-122"/>
<text text-anchor="middle" x="1536" y="-99.8" font-family="Times,serif" font-size="14.00">DeleteProductComponent</text>
</g>
<!-- DeleteProductComponent&#45;&gt;AppModule -->
<g id="edge7" class="edge">
<title>DeleteProductComponent&#45;&gt;AppModule</title>
<path fill="none" stroke="black" d="M1536,-122.19C1536,-137.18 1536,-156 1536,-156 1536,-156 1318.74,-156 1318.74,-156"/>
<polygon fill="black" stroke="black" points="1318.74,-152.5 1308.74,-156 1318.74,-159.5 1318.74,-152.5"/>
</g>
<!-- DeleteProviderComponent -->
<g id="node8" class="node">
<title>DeleteProviderComponent</title>
<polygon fill="#ffffb3" stroke="black" points="1437.07,-122 1270.93,-122 1270.93,-86 1437.07,-86 1437.07,-122"/>
<text text-anchor="middle" x="1354" y="-99.8" font-family="Times,serif" font-size="14.00">DeleteProviderComponent</text>
</g>
<!-- DeleteProviderComponent&#45;&gt;AppModule -->
<g id="edge8" class="edge">
<title>DeleteProviderComponent&#45;&gt;AppModule</title>
<path fill="none" stroke="black" d="M1289.9,-122.11C1289.9,-122.11 1289.9,-140.99 1289.9,-140.99"/>
<polygon fill="black" stroke="black" points="1286.4,-140.99 1289.9,-150.99 1293.4,-140.99 1286.4,-140.99"/>
</g>
<!-- DeleteUserComponent -->
<g id="node9" class="node">
<title>DeleteUserComponent</title>
<polygon fill="#ffffb3" stroke="black" points="1253.29,-122 1108.71,-122 1108.71,-86 1253.29,-86 1253.29,-122"/>
<text text-anchor="middle" x="1181" y="-99.8" font-family="Times,serif" font-size="14.00">DeleteUserComponent</text>
</g>
<!-- DeleteUserComponent&#45;&gt;AppModule -->
<g id="edge9" class="edge">
<title>DeleteUserComponent&#45;&gt;AppModule</title>
<path fill="none" stroke="black" d="M1239.16,-122.11C1239.16,-122.11 1239.16,-140.99 1239.16,-140.99"/>
<polygon fill="black" stroke="black" points="1235.66,-140.99 1239.16,-150.99 1242.66,-140.99 1235.66,-140.99"/>
</g>
<!-- HomeComponent -->
<g id="node10" class="node">
<title>HomeComponent</title>
<polygon fill="#ffffb3" stroke="black" points="1090.55,-122 975.45,-122 975.45,-86 1090.55,-86 1090.55,-122"/>
<text text-anchor="middle" x="1033" y="-99.8" font-family="Times,serif" font-size="14.00">HomeComponent</text>
</g>
<!-- HomeComponent&#45;&gt;AppModule -->
<g id="edge10" class="edge">
<title>HomeComponent&#45;&gt;AppModule</title>
<path fill="none" stroke="black" d="M1033,-122.19C1033,-137.18 1033,-156 1033,-156 1033,-156 1215.17,-156 1215.17,-156"/>
<polygon fill="black" stroke="black" points="1215.17,-159.5 1225.17,-156 1215.17,-152.5 1215.17,-159.5"/>
</g>
<!-- LoginComponent -->
<g id="node11" class="node">
<title>LoginComponent</title>
<polygon fill="#ffffb3" stroke="black" points="957.28,-122 842.72,-122 842.72,-86 957.28,-86 957.28,-122"/>
<text text-anchor="middle" x="900" y="-99.8" font-family="Times,serif" font-size="14.00">LoginComponent</text>
</g>
<!-- LoginComponent&#45;&gt;AppModule -->
<g id="edge11" class="edge">
<title>LoginComponent&#45;&gt;AppModule</title>
<path fill="none" stroke="black" d="M900,-122.03C900,-138.4 900,-160 900,-160 900,-160 1215.26,-160 1215.26,-160"/>
<polygon fill="black" stroke="black" points="1215.26,-163.5 1225.26,-160 1215.26,-156.5 1215.26,-163.5"/>
</g>
<!-- StatistiquesComponent -->
<g id="node12" class="node">
<title>StatistiquesComponent</title>
<polygon fill="#ffffb3" stroke="black" points="824.89,-122 679.11,-122 679.11,-86 824.89,-86 824.89,-122"/>
<text text-anchor="middle" x="752" y="-99.8" font-family="Times,serif" font-size="14.00">StatistiquesComponent</text>
</g>
<!-- StatistiquesComponent&#45;&gt;AppModule -->
<g id="edge12" class="edge">
<title>StatistiquesComponent&#45;&gt;AppModule</title>
<path fill="none" stroke="black" d="M752,-122.3C752,-140.27 752,-165 752,-165 752,-165 1215.29,-165 1215.29,-165"/>
<polygon fill="black" stroke="black" points="1215.29,-168.5 1225.29,-165 1215.29,-161.5 1215.29,-168.5"/>
</g>
<!-- StockComponent -->
<g id="node13" class="node">
<title>StockComponent</title>
<polygon fill="#ffffb3" stroke="black" points="660.72,-122 547.28,-122 547.28,-86 660.72,-86 660.72,-122"/>
<text text-anchor="middle" x="604" y="-99.8" font-family="Times,serif" font-size="14.00">StockComponent</text>
</g>
<!-- StockComponent&#45;&gt;AppModule -->
<g id="edge13" class="edge">
<title>StockComponent&#45;&gt;AppModule</title>
<path fill="none" stroke="black" d="M604,-122.11C604,-141.34 604,-169 604,-169 604,-169 1215.28,-169 1215.28,-169"/>
<polygon fill="black" stroke="black" points="1215.28,-172.5 1225.28,-169 1215.28,-165.5 1215.28,-172.5"/>
</g>
<!-- UpdateProductComponent -->
<g id="node14" class="node">
<title>UpdateProductComponent</title>
<polygon fill="#ffffb3" stroke="black" points="529.81,-122 364.19,-122 364.19,-86 529.81,-86 529.81,-122"/>
<text text-anchor="middle" x="447" y="-99.8" font-family="Times,serif" font-size="14.00">UpdateProductComponent</text>
</g>
<!-- UpdateProductComponent&#45;&gt;AppModule -->
<g id="edge14" class="edge">
<title>UpdateProductComponent&#45;&gt;AppModule</title>
<path fill="none" stroke="black" d="M447,-122.03C447,-142.77 447,-174 447,-174 447,-174 1215.21,-174 1215.21,-174"/>
<polygon fill="black" stroke="black" points="1215.21,-177.5 1225.21,-174 1215.21,-170.5 1215.21,-177.5"/>
</g>
<!-- UpdateProviderComponent -->
<g id="node15" class="node">
<title>UpdateProviderComponent</title>
<polygon fill="#ffffb3" stroke="black" points="345.97,-122 176.03,-122 176.03,-86 345.97,-86 345.97,-122"/>
<text text-anchor="middle" x="261" y="-99.8" font-family="Times,serif" font-size="14.00">UpdateProviderComponent</text>
</g>
<!-- UpdateProviderComponent&#45;&gt;AppModule -->
<g id="edge15" class="edge">
<title>UpdateProviderComponent&#45;&gt;AppModule</title>
<path fill="none" stroke="black" d="M261,-122.29C261,-144.21 261,-178 261,-178 261,-178 1215.05,-178 1215.05,-178"/>
<polygon fill="black" stroke="black" points="1215.05,-181.5 1225.05,-178 1215.05,-174.5 1215.05,-181.5"/>
</g>
<!-- AppComponent  -->
<g id="node18" class="node">
<title>AppComponent </title>
<polygon fill="#80b1d3" stroke="black" points="1321.44,-252 1212.56,-252 1212.56,-216 1321.44,-216 1321.44,-252"/>
<text text-anchor="middle" x="1267" y="-229.8" font-family="Times,serif" font-size="14.00">AppComponent </text>
</g>
<!-- AppModule&#45;&gt;AppComponent  -->
<g id="edge17" class="edge">
<title>AppModule&#45;&gt;AppComponent </title>
<path fill="none" stroke="black" stroke-dasharray="1,5" d="M1267,-187.11C1267,-187.11 1267,-205.99 1267,-205.99"/>
<polygon fill="black" stroke="black" points="1263.5,-205.99 1267,-215.99 1270.5,-205.99 1263.5,-205.99"/>
</g>
<!-- AppRoutingModule -->
<g id="node17" class="node">
<title>AppRoutingModule</title>
<polygon fill="#8dd3c7" stroke="black" points="152.27,-122 149.27,-126 128.27,-126 125.27,-122 23.73,-122 23.73,-86 152.27,-86 152.27,-122"/>
<text text-anchor="middle" x="88" y="-99.8" font-family="Times,serif" font-size="14.00">AppRoutingModule</text>
</g>
<!-- AppRoutingModule&#45;&gt;AppModule -->
<g id="edge16" class="edge">
<title>AppRoutingModule&#45;&gt;AppModule</title>
<path fill="none" stroke="black" d="M88,-122.32C88,-145.66 88,-183 88,-183 88,-183 1215.04,-183 1215.04,-183"/>
<polygon fill="black" stroke="black" points="1215.04,-186.5 1225.04,-183 1215.04,-179.5 1215.04,-186.5"/>
</g>
</g>
</svg>
